<svg xmlns="http://www.w3.org/2000/svg" viewBox="0 0 64 64" role="img" aria-label="Verified Cash Shield">
  <!-- Verified Cash Shield - Midnight Finance brand mark -->
  <rect width="64" height="64" rx="14" fill="#14213D"/>
  <path
    fill="none"
    stroke="#FFFFFF"
    stroke-width="3.25"
    stroke-linejoin="round"
    stroke-linecap="round"
    d="M32 10.5
       C39.5 10.5 46.5 12.8 50.5 15.2
       V30.5
       C50.5 42.2 42.8 50.8 32 54.5
       C21.2 50.8 13.5 42.2 13.5 30.5
       V15.2
       C17.5 12.8 24.5 10.5 32 10.5Z"
  />
  <rect x="21" y="36" width="5.5" height="8" rx="1.2" fill="#0F766E"/>
  <rect x="29.25" y="30.5" width="5.5" height="13.5" rx="1.2" fill="#0F766E"/>
  <rect x="37.5" y="23.5" width="5.5" height="20.5" rx="1.2" fill="#0F766E"/>
  <path
    fill="none"
    stroke="#0F766E"
    stroke-width="2.4"
    stroke-linecap="round"
    stroke-linejoin="round"
    d="M19.5 39.5 L23.75 36 L32 30.5 L40.25 23.5 L45.5 20"
  />
  <path
    fill="none"
    stroke="#D6A756"
    stroke-width="3"
    stroke-linecap="round"
    stroke-linejoin="round"
    d="M40.5 44.5 L44 48 L52.5 38.5"
  />
</svg>
